<svg xmlns="http://www.w3.org/2000/svg" width="381.406" height="321.005" viewBox="0 0 381.406 321.005"><defs><style>.a,.n{fill:#ffe58a;}.a,.b,.c,.d,.e,.f,.g,.h,.i,.j,.k,.l{fill-rule:evenodd;}.b{fill:#ffd772;}.c{fill:#f9f7f8;}.d{fill:#ff8086;}.e{fill:#e0dfe1;}.f{fill:#f0f0f0;}.g{fill:#dbeaff;}.h{fill:#d3cfd2;}.i{fill:#c3ddff;}.j{fill:#e5646e;}.k,.m{fill:#7e707d;}.l{fill:#6a5d6a;}</style></defs><g transform="matrix(0.998, 0.07, -0.07, 0.998, 19.601, -18.958)"><g transform="translate(257.274 53.925)"><path class="a" d="M0,20.173V44.9H40.322V20.173A20.161,20.161,0,1,0,0,20.173Z" transform="translate(0 0)"/></g><g transform="translate(269.305 53.925)"><path class="b" d="M12.031,37.353H28.292V20.173A20.237,20.237,0,0,0,8.12,0,19.914,19.914,0,0,0,0,1.731,20.222,20.222,0,0,1,12.031,20.172Z" transform="translate(0 0)"/></g><g transform="translate(211.461 91.279)"><path class="c" d="M0,106.545v59.106H47.843a39.876,39.876,0,0,1,55.323,0h23.741V118.319a3.214,3.214,0,0,1,3.2-3.2h23.8V93.532c0-2.906.107-4-.235-5.193L92.183,66.97,122.654,30.3,110.068,6.924C106.329-.021,107.611,0,99.726,0H0V106.545Z" transform="translate(0 0)"/></g><g transform="translate(7.97 47.408)"><path class="c" d="M0,3.868V151.463H211.034V3.868A3.9,3.9,0,0,0,207.144,0H3.868A3.881,3.881,0,0,0,0,3.868Z" transform="translate(0 0)"/></g><g transform="translate(71.84 79.376)"><path class="d" d="M0,47.61a8.244,8.244,0,0,0,8.227,8.227h19.21v19.21a8.24,8.24,0,0,0,8.206,8.227H47.63a8.24,8.24,0,0,0,8.206-8.227V55.837H75.068a8.24,8.24,0,0,0,8.206-8.227V35.643a8.24,8.24,0,0,0-8.206-8.227H55.836V8.206A8.235,8.235,0,0,0,47.63,0H35.643a8.235,8.235,0,0,0-8.206,8.206v19.21H8.227A8.244,8.244,0,0,0,0,35.643Z" transform="translate(0 0)"/></g><g transform="translate(7.97 206.393)"><path class="c" d="M0,0V50.538H52.032a39.9,39.9,0,0,1,55.344,0H211.033V0Z" transform="translate(0 0)"/></g><g transform="translate(0 249.386)"><path class="e" d="M0,6.475v17.2a6.479,6.479,0,0,0,6.453,6.475H55.387c-.021-.492-.021,4.423-.021-1.453S60.024,7.265,67.545,0H6.453A6.48,6.48,0,0,0,0,6.475Z" transform="translate(0 0)"/></g><g transform="translate(307.084 249.387)"><path class="e" d="M0,0C7.522,7.265,12.2,22.822,12.2,28.7s-.021.961-.021,1.453H61.092a6.484,6.484,0,0,0,6.474-6.474V6.475A6.484,6.484,0,0,0,61.092,0H0Z" transform="translate(0 0)"/></g><g transform="translate(191.503 47.408)"><path class="f" d="M27.5,143.92V3.868A3.9,3.9,0,0,0,23.612,0H0A3.9,3.9,0,0,1,3.889,3.868V143.92Z" transform="translate(0 0)"/></g><g transform="translate(195.392 213.936)"><path class="f" d="M0,0H23.612V35.451H0Z" transform="translate(0 0)"/></g><g transform="translate(331.145 206.393)"><path class="a" d="M0,3.205V42.994H34.232V0H3.184A3.21,3.21,0,0,0,0,3.205Z" transform="translate(0 0)"/></g><g transform="translate(281.463 121.579)"><path class="g" d="M0,8.334V49.683a8.381,8.381,0,0,0,8.355,8.355H83.678A21.469,21.469,0,0,0,81.8,54.106L52.651,0H8.354A8.376,8.376,0,0,0,0,8.334Z" transform="translate(0 0)"/></g><g transform="translate(355.804 249.387)"><path class="h" d="M18.846,23.676V6.474A6.483,6.483,0,0,0,12.372,0H0A6.479,6.479,0,0,1,6.453,6.474v17.2A6.479,6.479,0,0,1,0,30.151H12.372A6.483,6.483,0,0,0,18.846,23.676Z" transform="translate(0 0)"/></g><g transform="translate(296.934 91.278)"><path class="f" d="M20.258,30.3H37.181L24.6,6.924C20.856-.021,22.138,0,14.253,0H0C3.825,0,5.684,3.227,7.672,6.924Z" transform="translate(0 0)"/></g><g transform="translate(317.19 121.579)"><path class="i" d="M32.416,58.038H47.951a21.467,21.467,0,0,0-1.881-3.932L16.924,0H0Z" transform="translate(0 0)"/></g><g transform="translate(349.607 179.618)"><path class="f" d="M.256,26.775H15.77V5.192c0-2.906.107-4-.235-5.192H0C.363,1.2.256,2.287.256,5.192Z" transform="translate(0 0)"/></g><g transform="translate(7.97 191.328)"><path class="d" d="M0,0V22.608H211.033V0Z" transform="translate(0 0)"/></g><g transform="translate(195.392 191.328)"><path class="j" d="M23.612,22.608V0H0V22.608Z" transform="translate(0 0)"/></g><g transform="translate(107.803 249.387)"><path class="e" d="M0,0C7.522,7.265,12.2,22.822,12.2,28.7s-.021.961-.043,1.453H146.864c-.021-.492-.021,4.423-.021-1.453s4.68-21.433,12.18-28.7H0Z" transform="translate(0 0)"/></g><g transform="translate(247.103 238.232)"><path class="k" d="M12.2,11.155A39.782,39.782,0,0,0,0,39.853c0,.492,0,.961.021,1.453a39.857,39.857,0,0,0,79.661,0c.021-.492.043-.961.043-1.453A39.866,39.866,0,0,0,12.2,11.155Z" transform="translate(0 0)"/></g><g transform="translate(272.104 263.212)"><path class="c" d="M.064,16.326a14.868,14.868,0,0,0,29.6,0c.042-.492.064-.962.064-1.453A14.862,14.862,0,1,0,0,14.873C0,15.364.02,15.834.064,16.326Z" transform="translate(0 0)"/></g><g transform="translate(47.822 238.232)"><path class="k" d="M39.852,0A39.818,39.818,0,0,0,0,39.853c0,.492,0,.961.021,1.453a39.857,39.857,0,0,0,79.661,0c.021-.492.021-.961.021-1.453A39.818,39.818,0,0,0,39.852,0Zm0,24.98A14.883,14.883,0,0,1,54.725,39.853c0,.492-.021.961-.064,1.453a14.868,14.868,0,0,1-29.6,0c-.042-.492-.086-.961-.086-1.453A14.884,14.884,0,0,1,39.852,24.98Z" transform="translate(0 0)"/></g><g transform="translate(72.801 263.212)"><path class="c" d="M14.873,0A14.883,14.883,0,0,0,0,14.873c0,.492.042.961.086,1.453a14.868,14.868,0,0,0,29.6,0c.042-.492.064-.962.064-1.453A14.883,14.883,0,0,0,14.873,0Z" transform="translate(0 0)"/></g><g transform="translate(76.605 238.232)"><path class="l" d="M11.069,79.706A39.843,39.843,0,0,0,50.9,41.306c.021-.492.021-.961.021-1.453A39.818,39.818,0,0,0,11.069,0,39.355,39.355,0,0,0,0,1.56a39.568,39.568,0,0,1,23.1,9.595c.534.47,1.068.961,1.581,1.453a39.745,39.745,0,0,1,12.2,28.7c0,.492-.021.962-.042,1.453A39.869,39.869,0,0,1,8.1,79.6C9.082,79.663,10.065,79.706,11.069,79.706Z" transform="translate(0 0)"/></g><g transform="translate(275.886 238.232)"><path class="l" d="M11.069,79.706A39.828,39.828,0,0,0,50.9,41.306c.021-.492.042-.961.042-1.453A39.854,39.854,0,0,0,11.069,0,39.357,39.357,0,0,0,0,1.56a39.567,39.567,0,0,1,23.1,9.595c.534.47,1.068.961,1.581,1.453a39.745,39.745,0,0,1,12.2,28.7c0,.492-.021.962-.021,1.453A39.915,39.915,0,0,1,8.1,79.6C9.082,79.663,10.065,79.706,11.069,79.706Z" transform="translate(0 0)"/></g><g transform="translate(349.863 206.393)"><path class="b" d="M0,0H15.514V42.994H0Z" transform="translate(0 0)"/></g><g transform="translate(275.809 115.926)"><path class="m" d="M89.332,69.345H14.008A14.025,14.025,0,0,1,0,55.336V13.987A14.014,14.014,0,0,1,14.008,0H58.3a5.653,5.653,0,1,1,0,11.307h-44.3a2.726,2.726,0,0,0-2.7,2.68v41.35a2.737,2.737,0,0,0,2.7,2.7H89.332a5.654,5.654,0,0,1,0,11.308Z" transform="translate(0 0)"/></g><g transform="translate(32.468 67.098)"><path class="m" d="M5.653,20.923A5.653,5.653,0,0,1,0,15.269V5.653a5.653,5.653,0,0,1,11.307,0v9.616A5.653,5.653,0,0,1,5.653,20.923Z" transform="translate(0 0)"/></g><g transform="translate(183.2 67.098)"><path class="m" d="M5.653,20.923A5.653,5.653,0,0,1,0,15.269V5.653a5.653,5.653,0,1,1,11.307,0v9.616A5.653,5.653,0,0,1,5.653,20.923Z" transform="translate(0 0)"/></g><g transform="translate(271.772 0)"><path class="n" d="M5.653,25.069A5.653,5.653,0,0,1,0,19.415V5.653a5.653,5.653,0,0,1,11.307,0V19.415A5.653,5.653,0,0,1,5.653,25.069Z" transform="translate(0 0)"/></g><g transform="translate(236.235 15.063)"><path class="n" d="M15,25.092a5.647,5.647,0,0,1-4.685-2.484L.974,8.826a5.653,5.653,0,1,1,9.36-6.342l9.338,13.783A5.654,5.654,0,0,1,15,25.092Z" transform="translate(0 0)"/></g><g transform="translate(297.99 15.065)"><path class="n" d="M5.649,25.091A5.654,5.654,0,0,1,.974,16.266L10.312,2.483a5.653,5.653,0,1,1,9.36,6.342L10.334,22.608A5.648,5.648,0,0,1,5.649,25.091Z" transform="translate(0 0)"/></g></g></svg>