<svg xmlns="http://www.w3.org/2000/svg" width="60.887" height="51.244" viewBox="0 0 60.887 51.244"><defs><style>.a,.n{fill:#ffe58a;}.a,.b,.c,.d,.e,.f,.g,.h,.i,.j,.k,.l{fill-rule:evenodd;}.b{fill:#ffd772;}.c{fill:#f9f7f8;}.d{fill:#ff8086;}.e{fill:#e0dfe1;}.f{fill:#f0f0f0;}.g{fill:#dbeaff;}.h{fill:#d3cfd2;}.i{fill:#c3ddff;}.j{fill:#e5646e;}.k,.m{fill:#7e707d;}.l{fill:#6a5d6a;}</style></defs><g transform="matrix(0.998, 0.07, -0.07, 0.998, 3.129, -3.026)"><g transform="translate(41.071 8.609)"><path class="a" d="M0,3.22V7.167H6.437V3.22A3.218,3.218,0,1,0,0,3.22Z"/></g><g transform="translate(42.991 8.609)"><path class="b" d="M1.921,5.963h2.6V3.22A3.231,3.231,0,0,0,1.3,0,3.179,3.179,0,0,0,0,.276,3.228,3.228,0,0,1,1.921,3.22Z" transform="translate(0 0)"/></g><g transform="translate(33.757 14.571)"><path class="c" d="M0,17.009v9.436H7.638a6.366,6.366,0,0,1,8.832,0h3.79V18.888a.513.513,0,0,1,.512-.512h3.8V14.931a3.242,3.242,0,0,0-.038-.829l-9.817-3.411L19.58,4.837,17.571,1.105C16.974,0,17.179,0,15.92,0H0V17.009Z" transform="translate(0 0)"/></g><g transform="translate(1.272 7.568)"><path class="c" d="M0,.617V24.179H33.689V.617A.622.622,0,0,0,33.068,0H.617A.62.62,0,0,0,0,.617Z"/></g><g transform="translate(11.468 12.671)"><path class="d" d="M0,7.6A1.316,1.316,0,0,0,1.313,8.914H4.38V11.98a1.315,1.315,0,0,0,1.31,1.313H7.6a1.315,1.315,0,0,0,1.31-1.313V8.914h3.07A1.315,1.315,0,0,0,13.294,7.6V5.69a1.315,1.315,0,0,0-1.31-1.313H8.914V1.31A1.315,1.315,0,0,0,7.6,0H5.69A1.315,1.315,0,0,0,4.38,1.31V4.377H1.313A1.316,1.316,0,0,0,0,5.69Z" transform="translate(0 0)"/></g><g transform="translate(1.272 32.948)"><path class="c" d="M0,0V8.068H8.306a6.37,6.37,0,0,1,8.835,0H33.689V0Z"/></g><g transform="translate(0 39.811)"><path class="e" d="M0,1.034V3.78A1.034,1.034,0,0,0,1.03,4.813H8.842c0-.079,0,.706,0-.232A8.216,8.216,0,0,1,10.783,0H1.03A1.034,1.034,0,0,0,0,1.034Z"/></g><g transform="translate(49.022 39.811)"><path class="e" d="M0,0A8.224,8.224,0,0,1,1.948,4.581c0,.938,0,.153,0,.232H9.753A1.035,1.035,0,0,0,10.786,3.78V1.034A1.035,1.035,0,0,0,9.753,0H0Z"/></g><g transform="translate(30.571 7.568)"><path class="f" d="M4.39,22.975V.617A.622.622,0,0,0,3.769,0H0A.622.622,0,0,1,.621.617V22.975Z" transform="translate(0 0)"/></g><g transform="translate(31.192 34.152)"><path class="f" d="M0,0H3.769V5.659H0Z" transform="translate(0 0)"/></g><g transform="translate(52.863 32.948)"><path class="a" d="M0,.512V6.863H5.465V0H.508A.512.512,0,0,0,0,.512Z"/></g><g transform="translate(44.932 19.409)"><path class="g" d="M0,1.33v6.6A1.338,1.338,0,0,0,1.334,9.265H13.358a3.428,3.428,0,0,0-.3-.628L8.405,0H1.334A1.337,1.337,0,0,0,0,1.33Z" transform="translate(0 0)"/></g><g transform="translate(56.799 39.811)"><path class="h" d="M3.009,3.78V1.034A1.035,1.035,0,0,0,1.975,0H0A1.034,1.034,0,0,1,1.03,1.034V3.78A1.034,1.034,0,0,1,0,4.813H1.975A1.035,1.035,0,0,0,3.009,3.78Z"/></g><g transform="translate(47.402 14.571)"><path class="f" d="M3.234,4.837h2.7L3.926,1.105C3.329,0,3.534,0,2.275,0H0C.611,0,.907.515,1.225,1.105Z" transform="translate(0 0)"/></g><g transform="translate(50.635 19.409)"><path class="i" d="M5.175,9.265h2.48a3.427,3.427,0,0,0-.3-.628L2.7,0H0Z"/></g><g transform="translate(55.81 28.674)"><path class="f" d="M.041,4.274H2.517V.829A3.244,3.244,0,0,0,2.48,0H0A3.044,3.044,0,0,1,.041.829Z" transform="translate(0 0)"/></g><g transform="translate(1.272 30.543)"><path class="d" d="M0,0V3.609H33.689V0Z"/></g><g transform="translate(31.192 30.543)"><path class="j" d="M3.769,3.609V0H0V3.609Z" transform="translate(0 0)"/></g><g transform="translate(17.209 39.811)"><path class="e" d="M0,0A8.224,8.224,0,0,1,1.948,4.581c0,.938,0,.153-.007.232h21.5c0-.079,0,.706,0-.232A8.241,8.241,0,0,1,25.386,0H0Z"/></g><g transform="translate(39.447 38.031)"><path class="k" d="M1.948,1.781A6.351,6.351,0,0,0,0,6.362c0,.079,0,.153,0,.232a6.363,6.363,0,0,0,12.717,0c0-.078.007-.153.007-.232A6.364,6.364,0,0,0,1.948,1.781Z"/></g><g transform="translate(43.438 42.018)"><path class="c" d="M.01,2.606a2.374,2.374,0,0,0,4.724,0c.007-.079.01-.154.01-.232A2.372,2.372,0,1,0,0,2.374C0,2.453,0,2.528.01,2.606Z" transform="translate(0 0)"/></g><g transform="translate(7.634 38.031)"><path class="k" d="M6.362,0A6.357,6.357,0,0,0,0,6.362c0,.079,0,.153,0,.232a6.363,6.363,0,0,0,12.717,0c0-.078,0-.153,0-.232A6.356,6.356,0,0,0,6.362,0Zm0,3.988A2.376,2.376,0,0,1,8.736,6.362c0,.079,0,.153-.01.232A2.374,2.374,0,0,1,4,6.594c-.007-.078-.014-.153-.014-.232A2.376,2.376,0,0,1,6.362,3.988Z"/></g><g transform="translate(11.622 42.018)"><path class="c" d="M2.374,0A2.376,2.376,0,0,0,0,2.374c0,.079.007.153.014.232a2.374,2.374,0,0,0,4.724,0c.007-.079.01-.154.01-.232A2.376,2.376,0,0,0,2.374,0Z"/></g><g transform="translate(12.229 38.031)"><path class="l" d="M1.767,12.724a6.36,6.36,0,0,0,6.358-6.13c0-.078,0-.153,0-.232A6.357,6.357,0,0,0,1.767,0,6.283,6.283,0,0,0,0,.249,6.316,6.316,0,0,1,3.687,1.781c.085.075.171.153.252.232A6.345,6.345,0,0,1,5.888,6.594c0,.079,0,.153-.007.232a6.365,6.365,0,0,1-4.588,5.881C1.45,12.717,1.607,12.724,1.767,12.724Z"/></g><g transform="translate(44.042 38.031)"><path class="l" d="M1.767,12.724a6.358,6.358,0,0,0,6.358-6.13c0-.078.007-.153.007-.232A6.362,6.362,0,0,0,1.767,0,6.283,6.283,0,0,0,0,.249,6.316,6.316,0,0,1,3.687,1.781c.085.075.171.153.252.232A6.345,6.345,0,0,1,5.888,6.594c0,.079,0,.153,0,.232a6.372,6.372,0,0,1-4.591,5.881C1.45,12.717,1.607,12.724,1.767,12.724Z"/></g><g transform="translate(55.851 32.948)"><path class="b" d="M0,0H2.477V6.863H0Z"/></g><g transform="translate(44.029 18.506)"><path class="m" d="M14.261,11.07H2.236A2.239,2.239,0,0,1,0,8.834v-6.6A2.237,2.237,0,0,1,2.236,0H9.308a.9.9,0,1,1,0,1.8H2.236a.435.435,0,0,0-.431.428v6.6a.437.437,0,0,0,.431.431H14.261a.9.9,0,0,1,0,1.805Z"/></g><g transform="translate(5.183 10.711)"><path class="m" d="M.9,3.34a.9.9,0,0,1-.9-.9V.9A.9.9,0,0,1,1.8.9V2.438A.9.9,0,0,1,.9,3.34Z" transform="translate(0 0)"/></g><g transform="translate(29.245 10.711)"><path class="m" d="M.9,3.34a.9.9,0,0,1-.9-.9V.9A.9.9,0,0,1,1.8.9V2.438A.9.9,0,0,1,.9,3.34Z" transform="translate(0 0)"/></g><g transform="translate(43.385 0)"><path class="n" d="M.9,4A.9.9,0,0,1,0,3.1V.9A.9.9,0,0,1,1.8.9V3.1A.9.9,0,0,1,.9,4Z"/></g><g transform="translate(37.712 2.405)"><path class="n" d="M2.394,4.006a.9.9,0,0,1-.748-.4L.155,1.409A.9.9,0,1,1,1.65.4L3.14,2.6a.9.9,0,0,1-.746,1.409Z" transform="translate(0 0)"/></g><g transform="translate(47.57 2.405)"><path class="n" d="M.9,4.005A.9.9,0,0,1,.155,2.6L1.646.4A.9.9,0,1,1,3.14,1.409L1.65,3.609A.9.9,0,0,1,.9,4.005Z" transform="translate(0 0)"/></g></g></svg>